<?xml version="1.0" encoding="utf-8"?>
<svg width="90" height="90" viewBox="0 0 90 90" fill="none" xmlns="http://www.w3.org/2000/svg">
  <g>
    <path d="M60 0C60 0 6 0 6 0C2.685 0 0 2.685 0 6C0 6 0 60 0 60C0 63.315 2.685 66 6 66C6 66 60 66 60 66C63.315 66 66 63.315 66 60C66 60 66 6 66 6C66 2.685 63.315 0 60 0C60 0 60 0 60 0ZM20.862 54L12.012 54L12.012 25.524L20.862 25.524L20.862 54L20.862 54ZM16.347 21.453C13.494 21.453 11.187 19.14 11.187 16.293C11.187 13.446 13.497 11.136 16.347 11.136C19.191 11.136 21.504 13.449 21.504 16.293C21.504 19.14 19.191 21.453 16.347 21.453C16.347 21.453 16.347 21.453 16.347 21.453ZM54.012 54L45.168 54C45.168 54 45.168 40.152 45.168 40.152C45.168 36.849 45.108 32.601 40.569 32.601C35.964 32.601 35.256 36.198 35.256 39.912C35.256 39.912 35.256 54 35.256 54L26.412 54L26.412 25.524L34.902 25.524L34.902 29.415C34.902 29.415 35.022 29.415 35.022 29.415C36.204 27.177 39.09 24.816 43.395 24.816C52.356 24.816 54.012 30.714 54.012 38.382C54.012 38.382 54.012 54 54.012 54L54.012 54Z" fill="#FFFFFF" transform="translate(12 12)" />
  </g>
</svg>